<svg xmlns="http://www.w3.org/2000/svg" viewBox="0 0 120 120" width="120" height="120">
  <!-- PixL REC - White Pixel Vault / Folder Icon -->
  <g fill="#FFFFFF">
    <!-- Tab (Row 1 - 3 squares) -->
    <rect x="28.0" y="36.2" width="6.6" height="6.6" rx="1.0"/>
    <rect x="36.2" y="36.2" width="6.6" height="6.6" rx="1.0"/>
    <rect x="44.4" y="36.2" width="6.6" height="6.6" rx="1.0"/>

    <!-- Back Flap (Row 2 - 8 squares) -->
    <rect x="28.0" y="44.4" width="6.6" height="6.6" rx="1.0"/>
    <rect x="36.2" y="44.4" width="6.6" height="6.6" rx="1.0"/>
    <rect x="44.4" y="44.4" width="6.6" height="6.6" rx="1.0"/>
    <rect x="52.6" y="44.4" width="6.6" height="6.6" rx="1.0"/>
    <rect x="60.8" y="44.4" width="6.6" height="6.6" rx="1.0"/>
    <rect x="69.0" y="44.4" width="6.6" height="6.6" rx="1.0"/>
    <rect x="77.2" y="44.4" width="6.6" height="6.6" rx="1.0"/>
    <rect x="85.4" y="44.4" width="6.6" height="6.6" rx="1.0"/>

    <!-- Pocket Line (Row 3 - 2 outer edges) -->
    <rect x="28.0" y="52.6" width="6.6" height="6.6" rx="1.0"/>
    <rect x="85.4" y="52.6" width="6.6" height="6.6" rx="1.0"/>

    <!-- Front Flap Ridge (Row 4 - 8 squares) -->
    <rect x="28.0" y="60.8" width="6.6" height="6.6" rx="1.0"/>
    <rect x="36.2" y="60.8" width="6.6" height="6.6" rx="1.0"/>
    <rect x="44.4" y="60.8" width="6.6" height="6.6" rx="1.0"/>
    <rect x="52.6" y="60.8" width="6.6" height="6.6" rx="1.0"/>
    <rect x="60.8" y="60.8" width="6.6" height="6.6" rx="1.0"/>
    <rect x="69.0" y="60.8" width="6.6" height="6.6" rx="1.0"/>
    <rect x="77.2" y="60.8" width="6.6" height="6.6" rx="1.0"/>
    <rect x="85.4" y="60.8" width="6.6" height="6.6" rx="1.0"/>

    <!-- Front Flap Body (Row 5 - 8 squares) -->
    <rect x="28.0" y="69.0" width="6.6" height="6.6" rx="1.0"/>
    <rect x="36.2" y="69.0" width="6.6" height="6.6" rx="1.0"/>
    <rect x="44.4" y="69.0" width="6.6" height="6.6" rx="1.0"/>
    <rect x="52.6" y="69.0" width="6.6" height="6.6" rx="1.0"/>
    <rect x="60.8" y="69.0" width="6.6" height="6.6" rx="1.0"/>
    <rect x="69.0" y="69.0" width="6.6" height="6.6" rx="1.0"/>
    <rect x="77.2" y="69.0" width="6.6" height="6.6" rx="1.0"/>
    <rect x="85.4" y="69.0" width="6.6" height="6.6" rx="1.0"/>

    <!-- Front Flap Lower (Row 6 - 8 squares) -->
    <rect x="28.0" y="77.2" width="6.6" height="6.6" rx="1.0"/>
    <rect x="36.2" y="77.2" width="6.6" height="6.6" rx="1.0"/>
    <rect x="44.4" y="77.2" width="6.6" height="6.6" rx="1.0"/>
    <rect x="52.6" y="77.2" width="6.6" height="6.6" rx="1.0"/>
    <rect x="60.8" y="77.2" width="6.6" height="6.6" rx="1.0"/>
    <rect x="69.0" y="77.2" width="6.6" height="6.6" rx="1.0"/>
    <rect x="77.2" y="77.2" width="6.6" height="6.6" rx="1.0"/>
    <rect x="85.4" y="77.2" width="6.6" height="6.6" rx="1.0"/>

    <!-- Base (Row 7 - 6 squares) -->
    <rect x="36.2" y="85.4" width="6.6" height="6.6" rx="1.0"/>
    <rect x="44.4" y="85.4" width="6.6" height="6.6" rx="1.0"/>
    <rect x="52.6" y="85.4" width="6.6" height="6.6" rx="1.0"/>
    <rect x="60.8" y="85.4" width="6.6" height="6.6" rx="1.0"/>
    <rect x="69.0" y="85.4" width="6.6" height="6.6" rx="1.0"/>
    <rect x="77.2" y="85.4" width="6.6" height="6.6" rx="1.0"/>
  </g>
</svg>
