<svg xmlns="http://www.w3.org/2000/svg" viewBox="0 0 120 120" width="120" height="120">
  <!-- PixL REC - White Pixel Speaker / Audio Icon -->
  <g fill="#FFFFFF" transform="scale(1.2)" transform-origin="60 60">
    <!-- Speaker Body Base (Rows 4..6 - Cols 1, 2) -->
    <rect x="28.0" y="44.4" width="6.6" height="6.6" rx="1.0"/>
    <rect x="36.2" y="44.4" width="6.6" height="6.6" rx="1.0"/>
    <rect x="28.0" y="52.6" width="6.6" height="6.6" rx="1.0"/>
    <rect x="36.2" y="52.6" width="6.6" height="6.6" rx="1.0"/>
    <rect x="28.0" y="60.8" width="6.6" height="6.6" rx="1.0"/>
    <rect x="36.2" y="60.8" width="6.6" height="6.6" rx="1.0"/>

    <!-- Speaker Cone Flare (Rows 2..8 - Cols 3, 4, 5) -->
    <rect x="44.4" y="36.2" width="6.6" height="6.6" rx="1.0"/>
    <rect x="52.6" y="28.0" width="6.6" height="6.6" rx="1.0"/>
    <rect x="60.8" y="19.8" width="6.6" height="6.6" rx="1.0"/>

    <rect x="44.4" y="44.4" width="6.6" height="6.6" rx="1.0"/>
    <rect x="52.6" y="44.4" width="6.6" height="6.6" rx="1.0"/>
    <rect x="60.8" y="28.0" width="6.6" height="6.6" rx="1.0"/>
    <rect x="60.8" y="36.2" width="6.6" height="6.6" rx="1.0"/>
    <rect x="60.8" y="44.4" width="6.6" height="6.6" rx="1.0"/>
    <rect x="60.8" y="52.6" width="6.6" height="6.6" rx="1.0"/>
    <rect x="60.8" y="60.8" width="6.6" height="6.6" rx="1.0"/>
    <rect x="60.8" y="69.0" width="6.6" height="6.6" rx="1.0"/>
    <rect x="60.8" y="77.2" width="6.6" height="6.6" rx="1.0"/>
    <rect x="60.8" y="85.4" width="6.6" height="6.6" rx="1.0"/>

    <rect x="44.4" y="60.8" width="6.6" height="6.6" rx="1.0"/>
    <rect x="52.6" y="60.8" width="6.6" height="6.6" rx="1.0"/>
    <rect x="44.4" y="69.0" width="6.6" height="6.6" rx="1.0"/>
    <rect x="52.6" y="77.2" width="6.6" height="6.6" rx="1.0"/>

    <!-- Inner Sound Wave (Cols 7 - Rows 4, 5, 6) -->
    <rect x="77.2" y="44.4" width="6.6" height="6.6" rx="1.0"/>
    <rect x="77.2" y="52.6" width="6.6" height="6.6" rx="1.0"/>
    <rect x="77.2" y="60.8" width="6.6" height="6.6" rx="1.0"/>

    <!-- Outer Sound Wave (Cols 9 - Rows 3..7) -->
    <rect x="93.6" y="36.2" width="6.6" height="6.6" rx="1.0"/>
    <rect x="93.6" y="44.4" width="6.6" height="6.6" rx="1.0"/>
    <rect x="93.6" y="52.6" width="6.6" height="6.6" rx="1.0"/>
    <rect x="93.6" y="60.8" width="6.6" height="6.6" rx="1.0"/>
    <rect x="93.6" y="69.0" width="6.6" height="6.6" rx="1.0"/>
  </g>
</svg>
