<svg xmlns="http://www.w3.org/2000/svg" viewBox="0 0 120 120" width="120" height="120">
  <!-- PixL REC - White Pixel Telemetry Bars Dashboard Icon -->
  <g fill="#FFFFFF" transform="scale(1.2)" transform-origin="60 60">
    <!-- Bar 3 Peak (Col 5 - Row 1) -->
    <rect x="60.8" y="28.0" width="6.6" height="6.6" rx="1.0"/>

    <!-- Bar 3 Upper (Col 5 - Row 2) -->
    <rect x="60.8" y="36.2" width="6.6" height="6.6" rx="1.0"/>

    <!-- Bar 2 Peak & Bar 3 (Cols 3, 5 - Row 3) -->
    <rect x="44.4" y="44.4" width="6.6" height="6.6" rx="1.0"/>
    <rect x="60.8" y="44.4" width="6.6" height="6.6" rx="1.0"/>

    <!-- Bar 2, Bar 3, Bar 4 Peak (Cols 3, 5, 7 - Row 4) -->
    <rect x="44.4" y="52.6" width="6.6" height="6.6" rx="1.0"/>
    <rect x="60.8" y="52.6" width="6.6" height="6.6" rx="1.0"/>
    <rect x="77.2" y="52.6" width="6.6" height="6.6" rx="1.0"/>

    <!-- Bar 2, Bar 3, Bar 4 (Cols 3, 5, 7 - Row 5) -->
    <rect x="44.4" y="60.8" width="6.6" height="6.6" rx="1.0"/>
    <rect x="60.8" y="60.8" width="6.6" height="6.6" rx="1.0"/>
    <rect x="77.2" y="60.8" width="6.6" height="6.6" rx="1.0"/>

    <!-- Bar 1 Peak, Bar 2, Bar 3, Bar 4 (Cols 1, 3, 5, 7 - Row 6) -->
    <rect x="28.0" y="69.0" width="6.6" height="6.6" rx="1.0"/>
    <rect x="44.4" y="69.0" width="6.6" height="6.6" rx="1.0"/>
    <rect x="60.8" y="69.0" width="6.6" height="6.6" rx="1.0"/>
    <rect x="77.2" y="69.0" width="6.6" height="6.6" rx="1.0"/>

    <!-- Bar 1, Bar 2, Bar 3, Bar 4 (Cols 1, 3, 5, 7 - Row 7) -->
    <rect x="28.0" y="77.2" width="6.6" height="6.6" rx="1.0"/>
    <rect x="44.4" y="77.2" width="6.6" height="6.6" rx="1.0"/>
    <rect x="60.8" y="77.2" width="6.6" height="6.6" rx="1.0"/>
    <rect x="77.2" y="77.2" width="6.6" height="6.6" rx="1.0"/>

    <!-- Bar 1, Bar 2, Bar 3, Bar 4 (Cols 1, 3, 5, 7 - Row 8) -->
    <rect x="28.0" y="85.4" width="6.6" height="6.6" rx="1.0"/>
    <rect x="44.4" y="85.4" width="6.6" height="6.6" rx="1.0"/>
    <rect x="60.8" y="85.4" width="6.6" height="6.6" rx="1.0"/>
    <rect x="77.2" y="85.4" width="6.6" height="6.6" rx="1.0"/>

    <!-- Continuous Horizontal Baseline Rack (Row 9 - Cols 0..9) -->
    <rect x="19.8" y="93.6" width="6.6" height="6.6" rx="1.0"/>
    <rect x="28.0" y="93.6" width="6.6" height="6.6" rx="1.0"/>
    <rect x="36.2" y="93.6" width="6.6" height="6.6" rx="1.0"/>
    <rect x="44.4" y="93.6" width="6.6" height="6.6" rx="1.0"/>
    <rect x="52.6" y="93.6" width="6.6" height="6.6" rx="1.0"/>
    <rect x="60.8" y="93.6" width="6.6" height="6.6" rx="1.0"/>
    <rect x="69.0" y="93.6" width="6.6" height="6.6" rx="1.0"/>
    <rect x="77.2" y="93.6" width="6.6" height="6.6" rx="1.0"/>
    <rect x="85.4" y="93.6" width="6.6" height="6.6" rx="1.0"/>
    <rect x="93.6" y="93.6" width="6.6" height="6.6" rx="1.0"/>
  </g>
</svg>
