<svg xmlns="http://www.w3.org/2000/svg" viewBox="0 0 120 120" width="120" height="120">
  <!-- PixL REC - White Pixel Gesture / Swipe Icon -->
  <g fill="#FFFFFF" transform="scale(1.25)" transform-origin="60 60">
    <!-- Touch Ring / Radar Pulse (Top) -->
    <rect x="52.6" y="23.9" width="6.6" height="6.6" rx="1.0"/>
    <rect x="60.8" y="23.9" width="6.6" height="6.6" rx="1.0"/>

    <rect x="36.2" y="32.1" width="6.6" height="6.6" rx="1.0"/>
    <rect x="77.2" y="32.1" width="6.6" height="6.6" rx="1.0"/>

    <!-- Index Finger Tip (Row 2 - Cols 4, 5) -->
    <rect x="52.6" y="32.1" width="6.6" height="6.6" rx="1.0"/>
    <rect x="60.8" y="32.1" width="6.6" height="6.6" rx="1.0"/>

    <!-- Index Finger Shaft (Rows 3..5 - Cols 4, 5) -->
    <rect x="52.6" y="40.3" width="6.6" height="6.6" rx="1.0"/>
    <rect x="60.8" y="40.3" width="6.6" height="6.6" rx="1.0"/>

    <rect x="52.6" y="48.5" width="6.6" height="6.6" rx="1.0"/>
    <rect x="60.8" y="48.5" width="6.6" height="6.6" rx="1.0"/>

    <rect x="52.6" y="56.7" width="6.6" height="6.6" rx="1.0"/>
    <rect x="60.8" y="56.7" width="6.6" height="6.6" rx="1.0"/>

    <!-- Hand Palm & Curled Fingers (Rows 6..8) -->
    <rect x="36.2" y="64.9" width="6.6" height="6.6" rx="1.0"/>
    <rect x="44.4" y="64.9" width="6.6" height="6.6" rx="1.0"/>
    <rect x="52.6" y="64.9" width="6.6" height="6.6" rx="1.0"/>
    <rect x="60.8" y="64.9" width="6.6" height="6.6" rx="1.0"/>
    <rect x="69.0" y="64.9" width="6.6" height="6.6" rx="1.0"/>
    <rect x="77.2" y="64.9" width="6.6" height="6.6" rx="1.0"/>

    <rect x="36.2" y="73.1" width="6.6" height="6.6" rx="1.0"/>
    <rect x="44.4" y="73.1" width="6.6" height="6.6" rx="1.0"/>
    <rect x="52.6" y="73.1" width="6.6" height="6.6" rx="1.0"/>
    <rect x="60.8" y="73.1" width="6.6" height="6.6" rx="1.0"/>
    <rect x="69.0" y="73.1" width="6.6" height="6.6" rx="1.0"/>
    <rect x="77.2" y="73.1" width="6.6" height="6.6" rx="1.0"/>

    <!-- Wrist Base (Row 9) -->
    <rect x="44.4" y="81.3" width="6.6" height="6.6" rx="1.0"/>
    <rect x="52.6" y="81.3" width="6.6" height="6.6" rx="1.0"/>
    <rect x="60.8" y="81.3" width="6.6" height="6.6" rx="1.0"/>
    <rect x="69.0" y="81.3" width="6.6" height="6.6" rx="1.0"/>
  </g>
</svg>
