<svg xmlns="http://www.w3.org/2000/svg" viewBox="0 0 120 120" width="120" height="120">
  <!-- PixL REC - White Pixel Lightbulb / Feature Requester Icon -->
  <g fill="#FFFFFF">
    <rect x="48.5" y="11.6" width="6.6" height="6.6" rx="1.0"/>
    <rect x="56.7" y="11.6" width="6.6" height="6.6" rx="1.0"/>
    <rect x="64.9" y="11.6" width="6.6" height="6.6" rx="1.0"/>
    <rect x="40.3" y="19.8" width="6.6" height="6.6" rx="1.0"/>
    <rect x="48.5" y="19.8" width="6.6" height="6.6" rx="1.0"/>
    <rect x="56.7" y="19.8" width="6.6" height="6.6" rx="1.0"/>
    <rect x="64.9" y="19.8" width="6.6" height="6.6" rx="1.0"/>
    <rect x="73.1" y="19.8" width="6.6" height="6.6" rx="1.0"/>
    <rect x="32.1" y="28.0" width="6.6" height="6.6" rx="1.0"/>
    <rect x="40.3" y="28.0" width="6.6" height="6.6" rx="1.0"/>
    <rect x="48.5" y="28.0" width="6.6" height="6.6" rx="1.0"/>
    <rect x="56.7" y="28.0" width="6.6" height="6.6" rx="1.0"/>
    <rect x="64.9" y="28.0" width="6.6" height="6.6" rx="1.0"/>
    <rect x="73.1" y="28.0" width="6.6" height="6.6" rx="1.0"/>
    <rect x="81.3" y="28.0" width="6.6" height="6.6" rx="1.0"/>
    <rect x="32.1" y="36.2" width="6.6" height="6.6" rx="1.0"/>
    <rect x="40.3" y="36.2" width="6.6" height="6.6" rx="1.0"/>
    <rect x="48.5" y="36.2" width="6.6" height="6.6" rx="1.0"/>
    <rect x="56.7" y="36.2" width="6.6" height="6.6" rx="1.0"/>
    <rect x="64.9" y="36.2" width="6.6" height="6.6" rx="1.0"/>
    <rect x="73.1" y="36.2" width="6.6" height="6.6" rx="1.0"/>
    <rect x="81.3" y="36.2" width="6.6" height="6.6" rx="1.0"/>
    <rect x="32.1" y="44.4" width="6.6" height="6.6" rx="1.0"/>
    <rect x="40.3" y="44.4" width="6.6" height="6.6" rx="1.0"/>
    <rect x="48.5" y="44.4" width="6.6" height="6.6" rx="1.0"/>
    <rect x="56.7" y="44.4" width="6.6" height="6.6" rx="1.0"/>
    <rect x="64.9" y="44.4" width="6.6" height="6.6" rx="1.0"/>
    <rect x="73.1" y="44.4" width="6.6" height="6.6" rx="1.0"/>
    <rect x="81.3" y="44.4" width="6.6" height="6.6" rx="1.0"/>
    <rect x="32.1" y="52.6" width="6.6" height="6.6" rx="1.0"/>
    <rect x="40.3" y="52.6" width="6.6" height="6.6" rx="1.0"/>
    <rect x="48.5" y="52.6" width="6.6" height="6.6" rx="1.0"/>
    <rect x="56.7" y="52.6" width="6.6" height="6.6" rx="1.0"/>
    <rect x="64.9" y="52.6" width="6.6" height="6.6" rx="1.0"/>
    <rect x="73.1" y="52.6" width="6.6" height="6.6" rx="1.0"/>
    <rect x="81.3" y="52.6" width="6.6" height="6.6" rx="1.0"/>
    <rect x="40.3" y="60.8" width="6.6" height="6.6" rx="1.0"/>
    <rect x="48.5" y="60.8" width="6.6" height="6.6" rx="1.0"/>
    <rect x="56.7" y="60.8" width="6.6" height="6.6" rx="1.0"/>
    <rect x="64.9" y="60.8" width="6.6" height="6.6" rx="1.0"/>
    <rect x="73.1" y="60.8" width="6.6" height="6.6" rx="1.0"/>
    <rect x="48.5" y="69.0" width="6.6" height="6.6" rx="1.0"/>
    <rect x="56.7" y="69.0" width="6.6" height="6.6" rx="1.0"/>
    <rect x="64.9" y="69.0" width="6.6" height="6.6" rx="1.0"/>
    <rect x="48.5" y="85.4" width="6.6" height="6.6" rx="1.0"/>
    <rect x="56.7" y="85.4" width="6.6" height="6.6" rx="1.0"/>
    <rect x="64.9" y="85.4" width="6.6" height="6.6" rx="1.0"/>
    <rect x="48.5" y="101.8" width="6.6" height="6.6" rx="1.0"/>
    <rect x="56.7" y="101.8" width="6.6" height="6.6" rx="1.0"/>
    <rect x="64.9" y="101.8" width="6.6" height="6.6" rx="1.0"/>
  </g>
</svg>
