<svg xmlns="http://www.w3.org/2000/svg" viewBox="0 0 120 120" width="120" height="120">
    <g transform="scale(1.2) translate(-10, -10)">
        <!-- Left Bar -->
        <rect x="44.4" y="28.0" width="6.6" height="6.6" rx="1.0" fill="#FFFFFF" />
        <rect x="44.4" y="36.2" width="6.6" height="6.6" rx="1.0" fill="#FFFFFF" />
        <rect x="44.4" y="44.4" width="6.6" height="6.6" rx="1.0" fill="#FFFFFF" />
        <rect x="44.4" y="52.6" width="6.6" height="6.6" rx="1.0" fill="#FFFFFF" />
        <rect x="44.4" y="60.8" width="6.6" height="6.6" rx="1.0" fill="#FFFFFF" />
        <rect x="44.4" y="69.0" width="6.6" height="6.6" rx="1.0" fill="#FFFFFF" />
        <rect x="44.4" y="77.2" width="6.6" height="6.6" rx="1.0" fill="#FFFFFF" />
        <rect x="44.4" y="85.4" width="6.6" height="6.6" rx="1.0" fill="#FFFFFF" />
        <rect x="44.4" y="93.6" width="6.6" height="6.6" rx="1.0" fill="#FFFFFF" />

        <rect x="52.6" y="28.0" width="6.6" height="6.6" rx="1.0" fill="#FFFFFF" />
        <rect x="52.6" y="36.2" width="6.6" height="6.6" rx="1.0" fill="#FFFFFF" />
        <rect x="52.6" y="44.4" width="6.6" height="6.6" rx="1.0" fill="#FFFFFF" />
        <rect x="52.6" y="52.6" width="6.6" height="6.6" rx="1.0" fill="#FFFFFF" />
        <rect x="52.6" y="60.8" width="6.6" height="6.6" rx="1.0" fill="#FFFFFF" />
        <rect x="52.6" y="69.0" width="6.6" height="6.6" rx="1.0" fill="#FFFFFF" />
        <rect x="52.6" y="77.2" width="6.6" height="6.6" rx="1.0" fill="#FFFFFF" />
        <rect x="52.6" y="85.4" width="6.6" height="6.6" rx="1.0" fill="#FFFFFF" />
        <rect x="52.6" y="93.6" width="6.6" height="6.6" rx="1.0" fill="#FFFFFF" />

        <!-- Right Bar -->
        <rect x="69.0" y="28.0" width="6.6" height="6.6" rx="1.0" fill="#FFFFFF" />
        <rect x="69.0" y="36.2" width="6.6" height="6.6" rx="1.0" fill="#FFFFFF" />
        <rect x="69.0" y="44.4" width="6.6" height="6.6" rx="1.0" fill="#FFFFFF" />
        <rect x="69.0" y="52.6" width="6.6" height="6.6" rx="1.0" fill="#FFFFFF" />
        <rect x="69.0" y="60.8" width="6.6" height="6.6" rx="1.0" fill="#FFFFFF" />
        <rect x="69.0" y="69.0" width="6.6" height="6.6" rx="1.0" fill="#FFFFFF" />
        <rect x="69.0" y="77.2" width="6.6" height="6.6" rx="1.0" fill="#FFFFFF" />
        <rect x="69.0" y="85.4" width="6.6" height="6.6" rx="1.0" fill="#FFFFFF" />
        <rect x="69.0" y="93.6" width="6.6" height="6.6" rx="1.0" fill="#FFFFFF" />

        <rect x="77.2" y="28.0" width="6.6" height="6.6" rx="1.0" fill="#FFFFFF" />
        <rect x="77.2" y="36.2" width="6.6" height="6.6" rx="1.0" fill="#FFFFFF" />
        <rect x="77.2" y="44.4" width="6.6" height="6.6" rx="1.0" fill="#FFFFFF" />
        <rect x="77.2" y="52.6" width="6.6" height="6.6" rx="1.0" fill="#FFFFFF" />
        <rect x="77.2" y="60.8" width="6.6" height="6.6" rx="1.0" fill="#FFFFFF" />
        <rect x="77.2" y="69.0" width="6.6" height="6.6" rx="1.0" fill="#FFFFFF" />
        <rect x="77.2" y="77.2" width="6.6" height="6.6" rx="1.0" fill="#FFFFFF" />
        <rect x="77.2" y="85.4" width="6.6" height="6.6" rx="1.0" fill="#FFFFFF" />
        <rect x="77.2" y="93.6" width="6.6" height="6.6" rx="1.0" fill="#FFFFFF" />
    </g>
</svg>
