<svg xmlns="http://www.w3.org/2000/svg" viewBox="0 0 120 120" width="120" height="120">
  <!-- PixL REC - White Pixel Share Network Icon (46 blocks, 15x15 matrix) -->
  <g fill="#FFFFFF">
    <!-- Top-Right Hub (Center x=89.8, y=28.0) -->
    <rect x="83.3" y="18.3" width="5.4" height="5.4" rx="1.0"/>
    <rect x="89.8" y="18.3" width="5.4" height="5.4" rx="1.0"/>
    <rect x="76.8" y="24.8" width="5.4" height="5.4" rx="1.0"/>
    <rect x="83.3" y="24.8" width="5.4" height="5.4" rx="1.0"/>
    <rect x="89.8" y="24.8" width="5.4" height="5.4" rx="1.0"/>
    <rect x="96.3" y="24.8" width="5.4" height="5.4" rx="1.0"/>
    <rect x="76.8" y="31.3" width="5.4" height="5.4" rx="1.0"/>
    <rect x="83.3" y="31.3" width="5.4" height="5.4" rx="1.0"/>
    <rect x="89.8" y="31.3" width="5.4" height="5.4" rx="1.0"/>
    <rect x="96.3" y="31.3" width="5.4" height="5.4" rx="1.0"/>
    <rect x="83.3" y="37.8" width="5.4" height="5.4" rx="1.0"/>
    <rect x="89.8" y="37.8" width="5.4" height="5.4" rx="1.0"/>

    <!-- Upper Connecting Arm (Clean 2:1 Slope) -->
    <rect x="63.8" y="31.3" width="5.4" height="5.4" rx="1.0"/>
    <rect x="70.3" y="31.3" width="5.4" height="5.4" rx="1.0"/>
    <rect x="50.8" y="37.8" width="5.4" height="5.4" rx="1.0"/>
    <rect x="57.3" y="37.8" width="5.4" height="5.4" rx="1.0"/>
    <rect x="44.3" y="44.3" width="5.4" height="5.4" rx="1.0"/>

    <!-- Left Source Hub (Center x=28.0, y=54.0) -->
    <rect x="24.8" y="44.3" width="5.4" height="5.4" rx="1.0"/>
    <rect x="31.3" y="44.3" width="5.4" height="5.4" rx="1.0"/>
    <rect x="18.3" y="50.8" width="5.4" height="5.4" rx="1.0"/>
    <rect x="24.8" y="50.8" width="5.4" height="5.4" rx="1.0"/>
    <rect x="31.3" y="50.8" width="5.4" height="5.4" rx="1.0"/>
    <rect x="37.8" y="50.8" width="5.4" height="5.4" rx="1.0"/>
    <rect x="18.3" y="57.3" width="5.4" height="5.4" rx="1.0"/>
    <rect x="24.8" y="57.3" width="5.4" height="5.4" rx="1.0"/>
    <rect x="31.3" y="57.3" width="5.4" height="5.4" rx="1.0"/>
    <rect x="37.8" y="57.3" width="5.4" height="5.4" rx="1.0"/>
    <rect x="24.8" y="63.8" width="5.4" height="5.4" rx="1.0"/>
    <rect x="31.3" y="63.8" width="5.4" height="5.4" rx="1.0"/>

    <!-- Lower Connecting Arm (Clean 2:1 Slope) -->
    <rect x="44.3" y="63.8" width="5.4" height="5.4" rx="1.0"/>
    <rect x="50.8" y="70.3" width="5.4" height="5.4" rx="1.0"/>
    <rect x="57.3" y="70.3" width="5.4" height="5.4" rx="1.0"/>
    <rect x="63.8" y="76.8" width="5.4" height="5.4" rx="1.0"/>
    <rect x="70.3" y="76.8" width="5.4" height="5.4" rx="1.0"/>

    <!-- Bottom-Right Hub (Center x=89.8, y=80.0) -->
    <rect x="83.3" y="70.3" width="5.4" height="5.4" rx="1.0"/>
    <rect x="89.8" y="70.3" width="5.4" height="5.4" rx="1.0"/>
    <rect x="76.8" y="76.8" width="5.4" height="5.4" rx="1.0"/>
    <rect x="83.3" y="76.8" width="5.4" height="5.4" rx="1.0"/>
    <rect x="89.8" y="76.8" width="5.4" height="5.4" rx="1.0"/>
    <rect x="96.3" y="76.8" width="5.4" height="5.4" rx="1.0"/>
    <rect x="76.8" y="83.3" width="5.4" height="5.4" rx="1.0"/>
    <rect x="83.3" y="83.3" width="5.4" height="5.4" rx="1.0"/>
    <rect x="89.8" y="83.3" width="5.4" height="5.4" rx="1.0"/>
    <rect x="96.3" y="83.3" width="5.4" height="5.4" rx="1.0"/>
    <rect x="83.3" y="89.8" width="5.4" height="5.4" rx="1.0"/>
    <rect x="89.8" y="89.8" width="5.4" height="5.4" rx="1.0"/>
  </g>
</svg>
